<svg width="312" height="255" viewBox="0 0 312 255" fill="none" xmlns="http://www.w3.org/2000/svg">
<g clip-path="url(#clip0_189_219)">
<path d="M232.314 133.059C237.271 134.173 241.684 132.601 245.75 129.171C249.804 125.742 252.215 120.407 252.054 115.244C242.845 114.91 233.649 123.019 232.698 132.328" fill="#44673E"/>
<path d="M276.266 229.188C282.878 227.69 288.614 229.708 293.731 234.165C298.848 238.622 301.679 245.604 301.11 252.376C288.923 252.896 277.353 242.335 276.723 230.141" fill="#44673E"/>
<path d="M253.612 210.779C251.807 205.518 253.352 200.813 256.726 196.394C260.113 191.987 265.762 189.424 271.312 189.82C270.57 199.848 263.512 209.17 253.562 210.47" fill="#44673E"/>
<path d="M273.744 217.377C274.856 212.562 279.974 209.504 284.868 209.442C289.751 209.368 294.386 211.646 298.489 214.332C292.618 221.686 280.246 223.988 273.596 217.254" fill="#44673E"/>
<path d="M259.604 225.313C265.735 228.606 269.084 236.344 267.317 243.066C260.111 241.209 255.587 232.407 258.269 225.462" fill="#44673E"/>
<g opacity="0.25">
<path opacity="0.25" d="M282.607 234.326C285.289 234.288 287.959 234.709 290.493 235.601C291.494 235.947 292.025 234.4 291.024 234.041C288.367 233.1 285.549 232.642 282.73 232.679C282.285 232.679 281.89 232.976 281.853 233.447C281.828 233.855 282.162 234.326 282.619 234.326H282.607Z" fill="#44673E"/>
<path opacity="0.25" d="M289.071 239.909C291.309 240.045 293.41 240.837 295.19 242.199C295.548 242.472 296.092 242.323 296.327 241.964C296.587 241.568 296.451 241.097 296.092 240.825C294.102 239.315 291.667 238.423 289.183 238.262C288.132 238.201 288.008 239.835 289.071 239.909Z" fill="#44673E"/>
<path opacity="0.25" d="M284.4 235.402C282.954 237.792 283.251 241.072 285.204 243.103C285.513 243.425 286.007 243.487 286.366 243.189C286.687 242.905 286.761 242.348 286.452 242.026C286.254 241.815 286.069 241.592 285.896 241.345C285.958 241.444 285.896 241.345 285.871 241.295C285.834 241.246 285.809 241.184 285.772 241.122C285.698 240.998 285.636 240.862 285.575 240.738C285.513 240.602 285.463 240.466 285.414 240.33C285.365 240.193 285.414 240.354 285.389 240.268C285.365 240.206 285.352 240.144 285.327 240.082C285.253 239.797 285.191 239.513 285.167 239.215C285.167 239.154 285.154 239.079 285.142 239.017C285.142 238.931 285.142 239.092 285.142 238.943C285.142 238.795 285.142 238.646 285.142 238.51C285.142 238.237 285.179 237.953 285.241 237.68C285.216 237.829 285.266 237.581 285.266 237.581C285.278 237.519 285.303 237.458 285.315 237.383C285.352 237.247 285.402 237.111 285.451 236.975C285.5 236.851 285.55 236.727 285.612 236.603C285.55 236.739 285.661 236.517 285.661 236.517C285.698 236.442 285.735 236.38 285.785 236.306C286.02 235.922 285.933 235.415 285.55 235.167C285.191 234.932 284.648 235.019 284.413 235.402H284.4Z" fill="#44673E"/>
<path opacity="0.25" d="M289.514 241.63C290.219 243.796 290.874 245.987 292.407 247.745C293.099 248.538 294.347 247.461 293.643 246.668C292.926 245.839 292.419 244.898 291.999 243.883C291.628 242.979 291.418 242.236 291.121 241.333C290.985 240.912 290.639 240.59 290.157 240.677C289.761 240.751 289.366 241.209 289.502 241.642L289.514 241.63Z" fill="#44673E"/>
</g>
<g opacity="0.25">
<path opacity="0.25" d="M279.294 216.115C279.492 215.768 279.714 215.434 279.974 215.137C279.863 215.261 280.036 215.075 280.048 215.063C280.122 214.988 280.196 214.914 280.27 214.84C280.406 214.716 280.555 214.592 280.691 214.481C280.765 214.419 280.839 214.369 280.913 214.32C280.95 214.295 280.975 214.27 281.012 214.258C280.938 214.307 280.95 214.307 281.024 214.258C281.185 214.159 281.346 214.072 281.519 213.986C281.692 213.899 281.853 213.825 282.026 213.763C282.05 213.763 282.347 213.651 282.199 213.701C282.298 213.664 282.396 213.639 282.508 213.614C282.928 213.503 283.274 213.107 283.163 212.649C283.064 212.24 282.644 211.881 282.199 211.992C280.406 212.451 278.824 213.614 277.91 215.236C277.7 215.607 277.737 216.14 278.132 216.375C278.491 216.585 279.047 216.548 279.269 216.14L279.294 216.115Z" fill="#44673E"/>
<path opacity="0.25" d="M289.231 212.723C287.204 213.466 285.177 214.196 283.163 214.939C282.495 215.186 282.582 216.288 283.249 216.461C286.586 217.328 290.084 217.452 293.471 216.783C294.509 216.573 294.2 214.964 293.174 215.162C290.072 215.768 286.846 215.694 283.781 214.902C283.805 215.409 283.842 215.917 283.867 216.424C285.894 215.682 287.921 214.951 289.936 214.208C290.356 214.06 290.505 213.49 290.319 213.119C290.109 212.686 289.639 212.574 289.219 212.735L289.231 212.723Z" fill="#44673E"/>
<path opacity="0.25" d="M280.481 217.093C281.556 218.455 283.126 219.445 284.831 219.804C285.252 219.891 285.734 219.755 285.87 219.284C285.981 218.9 285.808 218.331 285.35 218.244C284.955 218.158 284.572 218.046 284.201 217.898C284.114 217.861 284.016 217.823 283.929 217.774C283.892 217.774 283.707 217.662 283.843 217.737C283.669 217.65 283.496 217.551 283.323 217.44C283.15 217.341 282.99 217.217 282.829 217.105C282.767 217.056 282.705 217.019 282.656 216.969C282.631 216.944 282.396 216.746 282.532 216.87C282.236 216.61 281.964 216.313 281.717 215.991C281.445 215.657 280.876 215.62 280.555 215.904C280.221 216.226 280.184 216.709 280.468 217.068L280.481 217.093Z" fill="#44673E"/>
</g>
<g opacity="0.25">
<path opacity="0.25" d="M265.611 192.618C264.363 193.695 263.214 194.884 262.175 196.171C261.693 196.778 261.224 197.397 260.803 198.04C260.42 198.647 260.136 199.316 260.284 200.046C260.395 200.591 260.952 200.838 261.446 200.64C262.942 200.034 264.45 199.427 265.945 198.833C266.353 198.672 266.514 198.115 266.341 197.731C266.131 197.31 265.661 197.174 265.241 197.347C263.745 197.954 262.237 198.56 260.729 199.155C261.125 199.353 261.508 199.551 261.891 199.749C261.792 199.303 262.262 198.808 262.497 198.474C262.892 197.917 263.3 197.372 263.733 196.84C264.623 195.763 265.611 194.772 266.674 193.856C267.478 193.163 266.403 191.925 265.599 192.618H265.611Z" fill="#44673E"/>
<path opacity="0.25" d="M257.947 205.171C259.653 205.307 261.383 204.998 262.953 204.305C263.349 204.131 263.546 203.587 263.336 203.203C263.126 202.794 262.656 202.633 262.236 202.819C262.063 202.893 261.89 202.968 261.717 203.03C261.618 203.067 261.532 203.104 261.433 203.129C261.346 203.153 261.383 203.153 261.445 203.129C261.408 203.153 261.358 203.153 261.321 203.166C260.951 203.277 260.567 203.364 260.197 203.438C260.011 203.475 259.826 203.5 259.64 203.512C259.554 203.512 259.467 203.525 259.368 203.537C259.331 203.537 259.282 203.537 259.233 203.537C259.022 203.549 259.331 203.537 259.208 203.537C258.825 203.537 258.441 203.537 258.046 203.512C257.613 203.475 257.181 203.834 257.168 204.28C257.156 204.726 257.465 205.122 257.922 205.159L257.947 205.171Z" fill="#44673E"/>
<path opacity="0.25" d="M256.724 199.018C255.958 200.665 256.007 202.658 256.761 204.292C256.946 204.688 257.466 204.886 257.861 204.676C258.257 204.465 258.442 203.995 258.244 203.574C258.207 203.487 258.158 203.401 258.121 203.314C258.121 203.289 258.034 203.042 258.022 203.042C258.059 203.153 258.071 203.178 258.046 203.116C258.046 203.091 258.034 203.067 258.022 203.042C258.022 203.005 257.997 202.955 257.985 202.918C257.96 202.819 257.935 202.732 257.911 202.633C257.873 202.448 257.836 202.249 257.812 202.064C257.812 202.014 257.812 201.977 257.799 201.928C257.787 201.742 257.799 202.002 257.799 201.928C257.799 201.829 257.799 201.73 257.799 201.63C257.799 201.432 257.812 201.247 257.836 201.049C257.836 200.962 257.861 200.875 257.873 200.789C257.873 200.739 257.886 200.69 257.898 200.64C257.861 200.801 257.923 200.479 257.898 200.64C257.997 200.256 258.108 199.897 258.269 199.538C258.454 199.142 258.145 198.61 257.762 198.498C257.292 198.362 256.909 198.597 256.724 199.018Z" fill="#44673E"/>
</g>
<g opacity="0.25">
<path opacity="0.25" d="M264.585 238.349C263.645 236.727 262.805 235.044 262.063 233.298C262.904 233.905 263.707 234.561 264.436 235.328C264.61 235.502 264.894 235.477 265.03 235.291C265.178 235.093 265.153 234.796 264.98 234.623C264.029 233.632 262.978 232.766 261.866 232.035C261.767 231.973 261.655 231.974 261.544 232.011C261.074 230.797 260.642 229.584 260.271 228.321C260.098 227.74 259.295 228.049 259.468 228.631C259.826 229.844 260.234 231.02 260.679 232.184C260.642 232.233 260.605 232.295 260.605 232.37C260.494 233.521 260.382 234.672 260.271 235.836C260.246 236.096 260.37 236.344 260.605 236.393C260.815 236.443 261.074 236.282 261.099 236.034C261.161 235.291 261.235 234.549 261.309 233.818C262.051 235.564 262.904 237.26 263.843 238.881C264.14 239.401 264.844 238.881 264.548 238.361L264.585 238.349Z" fill="#44673E"/>
</g>
<path d="M192.377 220.844L282.743 215.174C283.201 215.149 283.584 215.496 283.609 215.942C283.633 216.4 283.3 216.783 282.842 216.821L192.055 222.478C191.796 222.491 190.696 222.639 190.535 222.441" fill="#44673E"/>
<path d="M262.868 217.786C262.596 217.477 262.596 217.019 262.868 216.709C263.165 216.363 263.684 216.338 264.03 216.635L293.089 242.187C293.435 242.497 293.46 243.004 293.163 243.351C292.867 243.697 292.347 243.722 292.001 243.425L262.955 217.873C262.955 217.873 262.905 217.824 262.88 217.799L262.868 217.786Z" fill="#44673E"/>
<path d="M246.047 218.455C245.787 218.158 245.775 217.712 246.034 217.403L260.088 200.021C260.372 199.662 260.891 199.613 261.25 199.898C261.596 200.182 261.658 200.702 261.374 201.061L247.332 218.443C247.048 218.802 246.529 218.851 246.17 218.566C246.133 218.529 246.096 218.504 246.059 218.467L246.047 218.455Z" fill="#44673E"/>
<path d="M239.531 201.47C256.304 187.406 281.532 178.419 303.892 178.567C293.25 173.9 278.392 173.429 264.326 177.304C250.248 181.192 237.208 189.362 229.594 199.056" fill="#66995C"/>
<path d="M239.643 206.979C243.907 184.819 273.275 161.718 304.893 155.652C298.515 153.411 289.863 153.968 281.829 156.234C273.807 158.499 266.304 162.349 259.481 166.583C247.331 174.122 236.837 183.098 228.877 192.766" fill="#B1D9A8"/>
<path d="M283.164 123.415C276.131 116.878 274.87 104.993 280.383 97.1199C286.934 103.409 288.59 114.464 285.228 122.907" fill="#B1D9A8"/>
<path d="M281.459 127.29C289.209 122.177 300.741 124.071 306.464 131.387C299.591 137.862 287.256 137.07 281.273 129.766" fill="#B1D9A8"/>
<path d="M267.701 142.22C271.718 138.605 278.121 138.308 283.176 140.227C288.232 142.145 292.224 145.872 295.883 149.66C291.05 150.848 286.056 152 281.137 151.467C276.205 150.935 270.025 147.048 268.196 142.715" fill="#B1D9A8"/>
<path d="M256.75 153.461C261.311 161.26 271.273 165.234 279.172 162.399C274.475 155.565 265.687 150.106 257.393 153.634" fill="#66995C"/>
<path d="M269.876 136.401C265.043 134.062 262.262 128.701 261.582 123.378C260.902 118.054 261.99 112.682 263.065 107.42C272.249 114.34 275.512 125.916 271.52 136.711" fill="#B1D9A8"/>
<path d="M226.751 190.353C244.439 168.837 262.794 147.865 281.78 127.5C287.119 121.781 292.496 116.098 297.935 110.478C298.602 109.785 297.551 108.72 296.872 109.413C277.528 129.456 258.814 150.093 240.743 171.288C235.675 177.242 230.645 183.247 225.676 189.288C225.07 190.031 226.121 191.095 226.739 190.353H226.751Z" fill="#66995C"/>
<path d="M262.09 146.887C263.153 139.41 258.69 131.623 252.041 129.37C251.571 136.29 254.5 144.436 261.756 146.441" fill="#B1D9A8"/>
<path d="M292.1 115.207C292.347 102.641 298.267 94.706 311.901 91.0044C312.865 103.743 306.858 112.285 292.891 115.479" fill="#B1D9A8"/>
<path d="M252.758 87.835C252.263 83.4278 252.609 78.9092 254.599 74.8857C255.329 73.4002 256.997 71.8032 258.777 71.7908C260.495 71.7908 261.83 73.4249 261.917 75.0219C261.991 76.6189 261.311 78.2283 260.223 79.4539C258.11 81.8432 256.12 83.0317 253.648 86.6342C253.326 87.1046 252.77 87.8227 252.77 87.8227L252.758 87.835Z" fill="#B1D9A8"/>
<path d="M253.078 107.928C253.486 101.082 255.081 93.666 260.42 90.1872C262.583 88.7636 265.921 88.3798 267.676 90.6577C268.924 92.2794 268.974 94.8668 268.059 96.2905C267.033 97.8875 266.131 98.816 264.635 99.893C261.211 102.357 257.12 103.285 253.597 107.123C253.437 107.296 253.078 107.94 253.078 107.94V107.928Z" fill="#66995C"/>
<path d="M33.1135 116.259C31.0246 111.617 27.1311 109.017 21.9521 107.828C16.7732 106.64 11.0627 107.903 7.0332 111.134C12.2987 118.71 24.2883 121.211 32.2978 116.395" fill="#44673E"/>
<path d="M41.7531 112.756C44.287 110.032 43.8791 105.637 41.679 102.654C39.4788 99.67 35.9191 97.8502 32.3346 96.5132C30.3693 103.186 34.5965 111.654 41.9015 112.805" fill="#44673E"/>
<g opacity="0.25">
<path opacity="0.25" d="M26.958 114.625C25.7466 112.978 24.2634 111.555 22.533 110.403C21.8531 109.945 22.5948 108.967 23.2746 109.425C25.0916 110.626 26.6737 112.137 27.9468 113.857C28.1446 114.13 28.1446 114.489 27.8726 114.712C27.6254 114.91 27.1681 114.897 26.9703 114.625H26.958Z" fill="#44673E"/>
<path opacity="0.25" d="M20.4573 113.102C19.3448 111.815 17.8863 110.886 16.2053 110.379C15.8716 110.28 15.7109 109.883 15.8221 109.599C15.9457 109.277 16.3166 109.153 16.6503 109.252C18.5167 109.809 20.1977 110.899 21.4461 112.335C21.9776 112.941 20.9888 113.721 20.4573 113.102Z" fill="#44673E"/>
<path opacity="0.25" d="M25.4501 114.006C24.6096 115.9 22.3847 117.113 20.2093 116.804C19.8632 116.754 19.5913 116.482 19.6284 116.135C19.6531 115.826 19.9745 115.541 20.3206 115.59C20.5431 115.628 20.7779 115.64 21.0004 115.64C20.9015 115.64 21.0004 115.64 21.0498 115.64C21.0993 115.64 21.1487 115.64 21.1982 115.64C21.3094 115.64 21.4206 115.615 21.5319 115.59C21.6431 115.566 21.7544 115.541 21.8656 115.516C21.9769 115.491 21.8533 115.516 21.9151 115.516C21.9645 115.504 22.0139 115.479 22.0634 115.467C22.2735 115.392 22.4836 115.306 22.6814 115.207C22.7308 115.182 22.7679 115.157 22.8174 115.132C22.8668 115.108 22.7679 115.157 22.8668 115.108C22.9657 115.046 23.0522 114.984 23.1387 114.922C23.3118 114.798 23.4725 114.662 23.6208 114.513C23.5466 114.588 23.6702 114.451 23.6702 114.451C23.7073 114.414 23.732 114.377 23.7691 114.34C23.8433 114.253 23.9051 114.167 23.9669 114.08C24.0163 113.993 24.0781 113.919 24.1276 113.832C24.0658 113.932 24.1646 113.771 24.1646 113.758C24.1894 113.709 24.2141 113.647 24.2388 113.597C24.3748 113.3 24.7332 113.127 25.0669 113.251C25.3883 113.362 25.5737 113.733 25.4378 114.031L25.4501 114.006Z" fill="#44673E"/>
<path opacity="0.25" d="M19.1587 113.56C17.4653 114.068 15.772 114.588 13.955 114.415C13.1269 114.328 13.2381 113.127 14.0662 113.201C14.9191 113.288 15.7472 113.201 16.5878 113.003C17.3294 112.842 17.8856 112.657 18.6025 112.446C18.9362 112.347 19.2947 112.421 19.4554 112.743C19.5913 113.016 19.4801 113.449 19.1463 113.548L19.1587 113.56Z" fill="#44673E"/>
</g>
<g opacity="0.25">
<path opacity="0.25" d="M40.0105 108.868C40.1341 108.596 40.2454 108.324 40.3195 108.039C40.2948 108.163 40.3195 107.977 40.3319 107.965C40.3443 107.89 40.3566 107.816 40.369 107.729C40.3813 107.593 40.4061 107.457 40.4061 107.321C40.4061 107.247 40.4061 107.185 40.4061 107.11C40.4061 107.086 40.4061 107.048 40.4061 107.024C40.4061 107.086 40.4061 107.086 40.4061 107.011C40.3937 106.875 40.3813 106.739 40.3566 106.603C40.3319 106.467 40.3072 106.33 40.2701 106.194C40.2701 106.17 40.1959 105.959 40.233 106.058C40.2083 105.984 40.1712 105.91 40.1465 105.835C40.0229 105.538 40.1218 105.154 40.4555 105.031C40.7645 104.919 41.1848 105.018 41.3084 105.328C41.8399 106.603 41.8275 108.051 41.2218 109.302C41.0859 109.586 40.7274 109.784 40.3937 109.648C40.0971 109.524 39.8622 109.165 40.0229 108.868H40.0105Z" fill="#44673E"/>
<path opacity="0.25" d="M37.6006 101.403C38.0579 102.938 38.5276 104.473 38.9849 106.021C39.1333 106.529 38.3916 106.949 37.9837 106.615C35.9072 104.969 34.2262 102.901 33.089 100.574C32.743 99.8558 33.9048 99.3482 34.2509 100.066C35.2892 102.196 36.8219 104.114 38.7254 105.625C38.3916 105.823 38.0579 106.021 37.7242 106.219C37.2668 104.684 36.7971 103.149 36.3398 101.601C36.2409 101.279 36.5376 100.945 36.859 100.896C37.2298 100.834 37.5141 101.069 37.6006 101.391V101.403Z" fill="#44673E"/>
<path opacity="0.25" d="M38.8472 108.559C37.4875 108.485 36.1402 107.965 35.139 107.098C34.8918 106.888 34.7559 106.529 34.9907 106.244C35.1885 106.009 35.6211 105.885 35.893 106.108C36.1279 106.306 36.3751 106.491 36.6346 106.652C36.6964 106.689 36.7706 106.727 36.8324 106.764C36.8571 106.776 37.0055 106.85 36.8942 106.801C37.0302 106.875 37.1785 106.937 37.3145 106.987C37.4628 107.048 37.6111 107.098 37.7594 107.135C37.8089 107.148 37.8707 107.172 37.9325 107.185C37.9572 107.185 38.1921 107.247 38.0437 107.222C38.3527 107.284 38.6617 107.333 38.9708 107.346C39.3045 107.358 39.6011 107.692 39.5517 108.014C39.5022 108.348 39.218 108.571 38.8595 108.559H38.8472Z" fill="#44673E"/>
</g>
<path d="M78.2041 159.514L39.0218 106.367C38.8364 106.083 38.4285 105.996 38.1318 106.169C37.8228 106.343 37.7363 106.714 37.9341 106.999L76.8568 161.631C76.9681 161.792 77.8333 161.284 78.031 161.309" fill="#44673E"/>
<path d="M46.488 119.503C46.8094 119.527 47.106 119.342 47.1678 119.032C47.242 118.71 47.0318 118.376 46.6858 118.302L17.1816 111.641C16.8231 111.555 16.4894 111.765 16.4152 112.087C16.3411 112.409 16.5512 112.743 16.8973 112.817L46.4015 119.478C46.4015 119.478 46.4633 119.478 46.488 119.49V119.503Z" fill="#44673E"/>
<path d="M70.913 123.414C71.9018 118.425 70.2455 114.043 66.7228 110.057C63.2001 106.083 57.8233 103.78 52.6691 104.065C52.5578 113.3 60.864 122.3 70.1837 123.043" fill="#44673E"/>
<path d="M73.1365 204.267C68.9957 188.359 64.7809 172.253 56.7837 157.88C48.7989 143.519 36.4757 130.855 20.8027 125.952C34.9801 125.581 48.3292 133.826 57.2905 144.832C66.2517 155.837 71.4555 169.381 75.9299 182.863" fill="#B1D9A8"/>
<path d="M70.4054 192.346C61.5554 168.886 43.3733 154.674 20.6797 144.077C39.7394 144.956 56.055 157.422 70.9863 169.332" fill="#66995C"/>
<path d="M32.6548 186.242C29.4163 177.317 32.8031 166.422 40.5159 160.901C46.35 169.208 44.6319 182.417 34.447 186.552" fill="#B1D9A8"/>
<path d="M28.5281 185.475C23.2626 178.059 7.45375 180.213 3.15234 187.938C10.4079 193.819 23.893 192.766 30.9137 186.626" fill="#B1D9A8"/>
<path d="M45.3993 199.91C44.2004 190.315 49.3917 184.175 56.3382 180.548C58.044 187.901 54.6819 197.421 46.8455 200.269" fill="#B1D9A8"/>
<path d="M40.9616 196.716C35.177 196.418 26.8955 198.969 23.0885 203.351C19.2816 207.734 16.9084 213.144 14.5723 218.455C27.0933 222.329 41.9257 212.636 43.4213 199.6" fill="#B1D9A8"/>
<path d="M52.8887 208.551C43.0622 212.488 36.7832 224.286 35.8809 233.744C42.4566 233.756 47.1906 230.178 50.9358 225.375C54.6933 220.572 55.5833 214.307 53.2472 208.86" fill="#66995C"/>
<path d="M16.833 167.227C30.8867 188.285 49.1677 206.013 68.079 222.651C73.4681 227.393 78.9067 232.048 84.3576 236.715C85.0869 237.334 86.1499 236.282 85.4206 235.65C66.3486 219.334 47.153 202.905 30.998 183.593C26.4123 178.109 22.0985 172.414 18.1309 166.459C17.5994 165.667 16.3015 166.41 16.8454 167.214L16.833 167.227Z" fill="#66995C"/>
<path d="M20.1597 171.597C13.72 171.51 8.05895 166.794 4.98122 161.124C1.90349 155.454 0.927026 148.917 0 142.529C10.8029 145.612 23.5341 160.084 20.9632 170.792" fill="#B1D9A8"/>
<path d="M49.7119 95.7209C50.2311 90.5957 49.8726 85.3466 47.7837 80.6794C47.0174 78.9586 45.2498 77.0893 43.3834 77.0769C41.5665 77.0769 40.1574 78.9834 40.0832 80.8404C39.9967 82.6974 40.7136 84.5667 41.8631 85.9904C44.0756 88.7635 46.1892 90.1624 48.7849 94.3344C49.131 94.8791 49.7119 95.7209 49.7119 95.7209Z" fill="#66995C"/>
<path d="M30.7284 224.583C24.882 225.882 18.64 228.334 16.0814 233.607C15.0432 235.762 14.969 238.819 17.0703 240.094C18.5659 241.011 20.7907 240.701 21.9402 239.674C23.2257 238.535 23.955 237.594 24.7584 236.096C26.6001 232.679 27.0698 228.854 30.0857 225.177C30.2217 225.003 30.7408 224.595 30.7408 224.595L30.7284 224.583Z" fill="#66995C"/>
<path d="M142.887 171.436C107.388 171.436 78.502 132.984 78.502 85.718C78.502 38.4518 107.388 0 142.887 0C178.386 0 207.272 38.4518 207.272 85.718C207.272 132.984 178.386 171.436 142.887 171.436ZM142.887 9.09918C112.814 9.09918 88.3532 43.4656 88.3532 85.718C88.3532 127.97 112.814 162.337 142.887 162.337C172.96 162.337 197.421 127.97 197.421 85.718C197.421 43.4656 172.947 9.09918 142.887 9.09918Z" fill="#AF976C"/>
<path d="M69.6515 56.2913H236.825C241.633 56.2913 245.527 60.2033 245.527 65.0067V241.345C245.527 246.161 241.621 250.061 236.825 250.061H69.6392C64.831 250.061 60.9375 246.161 60.9375 241.345V65.0067C60.9375 60.1909 64.8434 56.2913 69.6392 56.2913H69.6515Z" fill="#E0C79C"/>
<path d="M164.778 171.436C129.279 171.436 100.393 132.984 100.393 85.718C100.393 38.4518 129.266 0 164.778 0C200.289 0 229.163 38.4518 229.163 85.718C229.163 132.984 200.277 171.436 164.778 171.436ZM164.778 9.09918C134.705 9.09918 110.244 43.4656 110.244 85.718C110.244 127.97 134.705 162.337 164.778 162.337C194.85 162.337 219.312 127.97 219.312 85.718C219.312 43.4656 194.85 9.09918 164.778 9.09918Z" fill="#E0C79C"/>
<path d="M69.2188 58.8662V60.7603" stroke="#EAE4C3" stroke-width="1.08" stroke-miterlimit="10"/>
<path d="M69.2188 64.5856V224.348C69.2188 233.744 76.9316 241.37 86.4491 241.37H221.214C230.731 241.37 238.432 233.756 238.432 224.348V62.6667" stroke="#EAE4C3" stroke-width="1.08" stroke-miterlimit="10"/>
<path d="M238.432 60.7603V58.8662" stroke="#EAE4C3" stroke-width="1.08" stroke-miterlimit="10"/>
<path d="M106.769 145.5V155.033H101.504V130.186H108.735C112.109 130.186 114.606 130.805 116.213 132.031C117.832 133.256 118.635 135.126 118.635 137.627C118.635 139.087 118.227 140.387 117.436 141.526C116.633 142.665 115.496 143.557 114.025 144.2C117.758 149.784 120.193 153.398 121.318 155.033H115.483L109.563 145.5H106.757H106.769ZM106.769 141.217H108.463C110.131 141.217 111.355 140.944 112.146 140.387C112.937 139.83 113.333 138.964 113.333 137.775C113.333 136.587 112.925 135.757 112.121 135.262C111.318 134.767 110.057 134.519 108.364 134.519H106.769V141.229V141.217Z" fill="#124734"/>
<path d="M138.746 155.033H124.457V130.186H138.746V134.507H129.723V139.966H138.128V144.287H129.723V150.7H138.746V155.045V155.033Z" fill="#124734"/>
<path d="M164.122 130.186V146.268C164.122 148.1 163.714 149.709 162.886 151.096C162.07 152.482 160.883 153.535 159.326 154.277C157.781 155.02 155.939 155.379 153.826 155.379C150.637 155.379 148.152 154.562 146.397 152.928C144.63 151.294 143.752 149.053 143.752 146.206V130.199H148.993V145.413C148.993 147.332 149.376 148.731 150.142 149.635C150.909 150.526 152.182 150.972 153.962 150.972C155.741 150.972 156.928 150.526 157.707 149.623C158.485 148.719 158.869 147.308 158.869 145.376V130.199H164.109L164.122 130.186Z" fill="#124734"/>
<path d="M184.849 148.137C184.849 150.378 184.046 152.148 182.426 153.436C180.82 154.723 178.57 155.379 175.702 155.379C173.057 155.379 170.709 154.884 168.682 153.881V148.991C170.35 149.734 171.772 150.266 172.934 150.576C174.095 150.885 175.158 151.034 176.11 151.034C177.26 151.034 178.15 150.811 178.768 150.365C179.386 149.92 179.695 149.264 179.695 148.397C179.695 147.914 179.559 147.481 179.287 147.097C179.015 146.713 178.619 146.354 178.088 145.995C177.556 145.636 176.493 145.079 174.874 144.312C173.354 143.594 172.217 142.913 171.463 142.257C170.709 141.6 170.103 140.833 169.646 139.966C169.188 139.1 168.966 138.072 168.966 136.908C168.966 134.705 169.708 132.984 171.203 131.721C172.686 130.459 174.751 129.84 177.371 129.84C178.656 129.84 179.892 129.988 181.067 130.298C182.241 130.607 183.465 131.04 184.738 131.585L183.044 135.683C181.722 135.138 180.622 134.754 179.757 134.544C178.891 134.333 178.038 134.222 177.198 134.222C176.197 134.222 175.443 134.457 174.911 134.915C174.38 135.386 174.108 135.98 174.108 136.735C174.108 137.206 174.219 137.602 174.429 137.948C174.639 138.295 174.985 138.629 175.455 138.951C175.925 139.273 177.037 139.855 178.792 140.697C181.116 141.811 182.698 142.925 183.563 144.039C184.429 145.153 184.849 146.528 184.849 148.149V148.137Z" fill="#124734"/>
<path d="M203.638 155.033H189.35V130.186H203.638V134.507H194.615V139.966H203.02V144.287H194.615V150.7H203.638V155.045V155.033Z" fill="#124734"/>
<path d="M139.549 192.172L133.579 172.674H133.43C133.64 176.635 133.752 179.285 133.752 180.609V192.172H129.055V167.326H136.211L142.082 186.329H142.181L148.411 167.326H155.568V192.172H150.661V180.411C150.661 179.854 150.661 179.21 150.685 178.492C150.698 177.774 150.784 175.843 150.92 172.711H150.772L144.369 192.172H139.549Z" fill="#124734"/>
<path d="M176.113 192.172H161.824V167.326H176.113V171.646H167.09V177.106H175.495V181.426H167.09V187.839H176.113V192.184V192.172Z" fill="#124734"/>
<path d="M132.404 120.134C134.901 116.754 137.225 113.213 139.907 109.97C142.119 107.284 144.764 104.498 148.151 103.372C155.172 101.056 161.673 106.801 165.95 111.666C168.509 114.575 170.758 117.72 173.156 120.753C173.824 121.595 174.986 120.406 174.33 119.577C169.757 113.808 165.505 107.147 158.942 103.421C155.914 101.7 152.317 100.735 148.843 101.465C145.37 102.195 142.416 104.659 140.055 107.259C136.668 110.973 133.949 115.256 130.958 119.292C130.315 120.159 131.761 120.988 132.392 120.134H132.404Z" fill="#124734"/>
<path d="M165.134 119.49C166.716 120.072 168.298 120.654 169.893 121.211C170.721 121.508 171.574 121.817 172.439 121.991C173.23 122.152 173.91 122.053 174.59 121.558C175.616 120.815 175.937 119.614 175.987 118.388C176.073 116.655 175.789 114.897 175.739 113.164C175.702 112.099 174.046 112.087 174.083 113.164C174.132 114.637 174.306 116.11 174.343 117.584C174.343 118.104 174.343 118.673 174.256 119.119C174.231 119.23 174.207 119.329 174.17 119.428C174.12 119.602 174.145 119.54 174.095 119.639C173.972 119.899 173.959 119.899 173.786 120.072C173.675 120.183 173.552 120.258 173.391 120.332C173.378 120.332 173.23 120.369 173.193 120.406C173.107 120.468 173.354 120.406 173.267 120.406C173.193 120.394 173.082 120.406 173.008 120.406C172.872 120.406 173.218 120.456 173.032 120.406C172.958 120.394 172.884 120.381 172.81 120.369C172.006 120.196 171.215 119.911 170.437 119.639C168.805 119.069 167.186 118.463 165.567 117.881C165.146 117.732 164.652 118.054 164.541 118.463C164.417 118.921 164.702 119.329 165.122 119.49H165.134Z" fill="#124734"/>
<path d="M196.024 161.062C198.026 163.909 199.967 166.942 201.141 170.235C201.982 172.6 202.525 175.299 200.956 177.477C199.621 179.322 197.334 180.201 195.196 180.733C192.13 181.501 188.941 181.649 185.802 181.724C184.739 181.749 184.727 183.407 185.802 183.383C189.263 183.308 192.823 183.135 196.185 182.194C198.558 181.538 200.943 180.399 202.389 178.319C204.046 175.942 203.811 173.058 202.958 170.421C201.771 166.732 199.67 163.364 197.458 160.22C196.852 159.353 195.406 160.183 196.024 161.062Z" fill="#124734"/>
<path d="M187.966 176.537C186.804 177.638 185.457 178.554 184.344 179.718C183.467 180.622 182.774 181.761 183.046 183.073C183.318 184.385 184.381 185.19 185.407 185.821C186.779 186.676 188.287 187.282 189.733 187.976C190.697 188.446 191.538 187.01 190.574 186.539C189.301 185.92 188.003 185.376 186.767 184.682C186.013 184.262 184.876 183.655 184.665 182.739C184.455 181.823 185.333 181.043 185.939 180.486C186.977 179.532 188.114 178.691 189.14 177.713C189.919 176.97 188.744 175.794 187.966 176.537Z" fill="#124734"/>
<path d="M121.678 183.457C118.612 183.642 115.51 183.766 112.445 183.494C110.22 183.296 107.142 182.961 105.609 181.117C103.867 179.025 104.571 175.893 105.387 173.59C106.66 169.987 108.811 166.707 110.961 163.575C111.567 162.696 110.133 161.854 109.528 162.733C107.612 165.531 105.758 168.427 104.41 171.56C103.446 173.8 102.655 176.276 102.94 178.752C103.52 183.618 108.267 184.794 112.432 185.165C115.498 185.437 118.6 185.314 121.665 185.128C122.728 185.066 122.741 183.395 121.665 183.469L121.678 183.457Z" fill="#44673E"/>
<path d="M113.839 168.329C113.629 166.831 113.654 165.308 113.419 163.798C113.246 162.634 112.838 161.433 111.8 160.777C110.663 160.059 109.241 160.344 108.067 160.814C106.46 161.458 104.989 162.386 103.469 163.203C102.53 163.711 103.37 165.147 104.31 164.639C105.632 163.921 106.93 163.117 108.302 162.498C109.13 162.139 110.267 161.681 111.034 162.262C111.615 162.696 111.775 163.822 111.862 164.639C111.998 166.014 112.047 167.388 112.233 168.762C112.294 169.208 112.863 169.455 113.259 169.344C113.741 169.208 113.901 168.762 113.839 168.316V168.329Z" fill="#44673E"/>
</g>
<defs>
<clipPath id="clip0_189_219">
<rect width="312" height="255" fill="white"/>
</clipPath>
</defs>
</svg>
