<svg width="28" height="26" viewBox="0 0 28 26" fill="none" xmlns="http://www.w3.org/2000/svg">
<path d="M12.6476 23.3943L12.6462 23.3929C9.02122 20.0662 6.09302 17.3766 4.05901 14.8599C2.03683 12.3577 1 10.1463 1 7.79292C1 3.96983 3.95156 1 7.7 1C9.8287 1 11.8909 2.00784 13.2348 3.60513L14 4.51453L14.7652 3.60513C16.1091 2.00784 18.1713 1 20.3 1C24.0484 1 27 3.96983 27 7.79292C27 10.1463 25.9632 12.3578 23.9408 14.8619C21.9069 17.3803 18.9791 20.0729 15.3547 23.4063L15.3531 23.4078L14.0026 24.6426L12.6476 23.3943Z" stroke="#D6832B" stroke-width="2"/>
</svg>
